# xmcd
# 
# Track frame offsets:
#     225
#     47310
#     76115
#     89550
#     117590
#     136420
#     157572
# 
# Disc length: 2663
# 
# Revision: 36
# Processed by: cddbd v1.5.2PL0 Copyright (c) Steve Scherf et al.
# Submitted via: fre:ac v1.0.17
# 
DISCID=490a6407
DTITLE=Led Zeppelin - Presence (1976)
DYEAR=1976
DGENRE=Classic Rock
TTITLE0=Achilles Last Stand
TTITLE1=For Your Life
TTITLE2=Royal Orleans
TTITLE3=Nobody's Fault But Mine
TTITLE4=Candy Store Rock
TTITLE5=Hots On For Nowhere
TTITLE6=Tea For One
EXTD=
EXTT0=
EXTT1=
EXTT2=
EXTT3=
EXTT4=
EXTT5=
EXTT6=
PLAYORDER=
